<svg width="156" height="108" viewBox="0 0 156 108" fill="none" xmlns="http://www.w3.org/2000/svg">
<g filter="url(#filter0_i)">
<path d="M14.0003 93.0003L78.5 0.499968L78.5 17.5L41.75 93.0003L14.0003 93.0003Z" fill="#219987"/>
</g>
<path d="M41.5936 92.7503L14.4794 92.7503L78.25 1.29558L78.25 17.4424L41.5936 92.7503Z" stroke="#FFFBFB" stroke-width="0.5" stroke-linejoin="round"/>
<g filter="url(#filter1_i)">
<path d="M78.5 0.5L140 93L111 93L78.5 17L78.5 0.5Z" fill="#219987"/>
</g>
<path d="M78.75 16.9488L78.75 1.32756L139.534 92.75L111.165 92.75L78.75 16.9488Z" stroke="#FFFAFA" stroke-width="0.5"/>
<g filter="url(#filter2_d)">
<path d="M78.5 69L96.5 61L78.5 79.5L58 61L78.5 69Z" fill="#20A490"/>
<path d="M78.3182 69.4658L78.5125 69.5416L78.7031 69.4569L94.3329 62.5103L78.4775 78.8061L60.3628 62.4588L78.3182 69.4658Z" stroke="black" stroke-opacity="0.25"/>
</g>
<defs>
<filter id="filter0_i" x="0" y="0.499969" width="106.375" height="110.375" filterUnits="userSpaceOnUse" color-interpolation-filters="sRGB">
<feFlood flood-opacity="0" result="BackgroundImageFix"/>
<feBlend mode="normal" in="SourceGraphic" in2="BackgroundImageFix" result="shape"/>
<feColorMatrix in="SourceAlpha" type="matrix" values="0 0 0 0 0 0 0 0 0 0 0 0 0 0 0 0 0 0 127 0" result="hardAlpha"/>
<feOffset dy="4"/>
<feGaussianBlur stdDeviation="2"/>
<feComposite in2="hardAlpha" operator="arithmetic" k2="-1" k3="1"/>
<feColorMatrix type="matrix" values="0 0 0 0 0 0 0 0 0 0 0 0 0 0 0 0 0 0 0.25 0"/>
<feBlend mode="normal" in2="shape" result="effect1_innerShadow"/>
</filter>
<filter id="filter1_i" x="48.5" y="0.5" width="107" height="111" filterUnits="userSpaceOnUse" color-interpolation-filters="sRGB">
<feFlood flood-opacity="0" result="BackgroundImageFix"/>
<feBlend mode="normal" in="SourceGraphic" in2="BackgroundImageFix" result="shape"/>
<feColorMatrix in="SourceAlpha" type="matrix" values="0 0 0 0 0 0 0 0 0 0 0 0 0 0 0 0 0 0 127 0" result="hardAlpha"/>
<feOffset dy="4"/>
<feGaussianBlur stdDeviation="2"/>
<feComposite in2="hardAlpha" operator="arithmetic" k2="-1" k3="1"/>
<feColorMatrix type="matrix" values="0 0 0 0 0 0 0 0 0 0 0 0 0 0 0 0 0 0 0.25 0"/>
<feBlend mode="normal" in2="shape" result="effect1_innerShadow"/>
</filter>
<filter id="filter2_d" x="54" y="61" width="46.5" height="26.5" filterUnits="userSpaceOnUse" color-interpolation-filters="sRGB">
<feFlood flood-opacity="0" result="BackgroundImageFix"/>
<feColorMatrix in="SourceAlpha" type="matrix" values="0 0 0 0 0 0 0 0 0 0 0 0 0 0 0 0 0 0 127 0"/>
<feOffset dy="4"/>
<feGaussianBlur stdDeviation="2"/>
<feColorMatrix type="matrix" values="0 0 0 0 0 0 0 0 0 0 0 0 0 0 0 0 0 0 0.25 0"/>
<feBlend mode="normal" in2="BackgroundImageFix" result="effect1_dropShadow"/>
<feBlend mode="normal" in="SourceGraphic" in2="effect1_dropShadow" result="shape"/>
</filter>
</defs>
</svg>
